<mxfile host="app.diagrams.net" modified="2024-01-03T21:59:10.184Z" agent="Mozilla/5.0 (Windows NT 10.0; Win64; x64) AppleWebKit/537.36 (KHTML, like Gecko) Chrome/119.0.0.0 Safari/537.36 OPR/105.0.0.0" etag="tJkEDv3OCSK5T9NnAzBX" version="22.1.16" type="device">
  <diagram id="C5RBs43oDa-KdzZeNtuy" name="Page-1">
    <mxGraphModel dx="1380" dy="793" grid="1" gridSize="10" guides="1" tooltips="1" connect="1" arrows="1" fold="1" page="1" pageScale="1" pageWidth="827" pageHeight="1169" math="0" shadow="0">
      <root>
        <mxCell id="WIyWlLk6GJQsqaUBKTNV-0" />
        <mxCell id="WIyWlLk6GJQsqaUBKTNV-1" parent="WIyWlLk6GJQsqaUBKTNV-0" />
        <mxCell id="MU2c6UWODqNbLvH5EpvW-20" value="" style="rounded=0;whiteSpace=wrap;html=1;fillColor=#dae8fc;strokeColor=#6c8ebf;gradientColor=#7ea6e0;" parent="WIyWlLk6GJQsqaUBKTNV-1" vertex="1">
          <mxGeometry x="60" y="150" width="830" height="410" as="geometry" />
        </mxCell>
        <mxCell id="MU2c6UWODqNbLvH5EpvW-17" style="edgeStyle=orthogonalEdgeStyle;rounded=0;orthogonalLoop=1;jettySize=auto;html=1;entryX=0.5;entryY=0;entryDx=0;entryDy=0;shadow=1;" parent="WIyWlLk6GJQsqaUBKTNV-1" source="MU2c6UWODqNbLvH5EpvW-0" target="MU2c6UWODqNbLvH5EpvW-1" edge="1">
          <mxGeometry relative="1" as="geometry" />
        </mxCell>
        <mxCell id="MU2c6UWODqNbLvH5EpvW-19" style="edgeStyle=orthogonalEdgeStyle;rounded=0;orthogonalLoop=1;jettySize=auto;html=1;entryX=0.5;entryY=0;entryDx=0;entryDy=0;shadow=1;" parent="WIyWlLk6GJQsqaUBKTNV-1" source="MU2c6UWODqNbLvH5EpvW-0" target="MU2c6UWODqNbLvH5EpvW-2" edge="1">
          <mxGeometry relative="1" as="geometry" />
        </mxCell>
        <mxCell id="MU2c6UWODqNbLvH5EpvW-0" value="animals" style="rounded=1;whiteSpace=wrap;html=1;shadow=1;" parent="WIyWlLk6GJQsqaUBKTNV-1" vertex="1">
          <mxGeometry x="280" y="200" width="140" height="40" as="geometry" />
        </mxCell>
        <mxCell id="MU2c6UWODqNbLvH5EpvW-1" value="pets" style="rounded=1;whiteSpace=wrap;html=1;shadow=1;" parent="WIyWlLk6GJQsqaUBKTNV-1" vertex="1">
          <mxGeometry x="90" y="280" width="160" height="40" as="geometry" />
        </mxCell>
        <mxCell id="MU2c6UWODqNbLvH5EpvW-2" value="pack animals" style="rounded=1;whiteSpace=wrap;html=1;shadow=1;" parent="WIyWlLk6GJQsqaUBKTNV-1" vertex="1">
          <mxGeometry x="480" y="280" width="160" height="40" as="geometry" />
        </mxCell>
        <mxCell id="MU2c6UWODqNbLvH5EpvW-7" style="edgeStyle=orthogonalEdgeStyle;rounded=0;orthogonalLoop=1;jettySize=auto;html=1;endArrow=none;endFill=0;shadow=1;" parent="WIyWlLk6GJQsqaUBKTNV-1" source="MU2c6UWODqNbLvH5EpvW-3" edge="1">
          <mxGeometry relative="1" as="geometry">
            <mxPoint x="150" y="329.9999999999999" as="targetPoint" />
          </mxGeometry>
        </mxCell>
        <mxCell id="MU2c6UWODqNbLvH5EpvW-3" value="cats" style="ellipse;whiteSpace=wrap;html=1;shadow=1;" parent="WIyWlLk6GJQsqaUBKTNV-1" vertex="1">
          <mxGeometry x="170" y="340" width="120" height="50" as="geometry" />
        </mxCell>
        <mxCell id="MU2c6UWODqNbLvH5EpvW-8" style="edgeStyle=orthogonalEdgeStyle;rounded=0;orthogonalLoop=1;jettySize=auto;html=1;endArrow=none;endFill=0;shadow=1;" parent="WIyWlLk6GJQsqaUBKTNV-1" source="MU2c6UWODqNbLvH5EpvW-5" edge="1">
          <mxGeometry relative="1" as="geometry">
            <mxPoint x="130" y="320" as="targetPoint" />
            <Array as="points">
              <mxPoint x="130" y="425" />
            </Array>
          </mxGeometry>
        </mxCell>
        <mxCell id="MU2c6UWODqNbLvH5EpvW-5" value="dogs" style="ellipse;whiteSpace=wrap;html=1;shadow=1;" parent="WIyWlLk6GJQsqaUBKTNV-1" vertex="1">
          <mxGeometry x="170" y="400" width="120" height="50" as="geometry" />
        </mxCell>
        <mxCell id="MU2c6UWODqNbLvH5EpvW-6" value="hamsters" style="ellipse;whiteSpace=wrap;html=1;shadow=1;" parent="WIyWlLk6GJQsqaUBKTNV-1" vertex="1">
          <mxGeometry x="170" y="460" width="120" height="50" as="geometry" />
        </mxCell>
        <mxCell id="MU2c6UWODqNbLvH5EpvW-10" style="edgeStyle=orthogonalEdgeStyle;rounded=0;orthogonalLoop=1;jettySize=auto;html=1;endArrow=none;endFill=0;shadow=1;" parent="WIyWlLk6GJQsqaUBKTNV-1" source="MU2c6UWODqNbLvH5EpvW-6" edge="1">
          <mxGeometry relative="1" as="geometry">
            <mxPoint x="108" y="320" as="targetPoint" />
            <Array as="points">
              <mxPoint x="108" y="485" />
            </Array>
          </mxGeometry>
        </mxCell>
        <mxCell id="MU2c6UWODqNbLvH5EpvW-12" value="horses" style="ellipse;whiteSpace=wrap;html=1;shadow=1;" parent="WIyWlLk6GJQsqaUBKTNV-1" vertex="1">
          <mxGeometry x="450" y="340" width="120" height="50" as="geometry" />
        </mxCell>
        <mxCell id="MU2c6UWODqNbLvH5EpvW-14" value="camels" style="ellipse;whiteSpace=wrap;html=1;shadow=1;" parent="WIyWlLk6GJQsqaUBKTNV-1" vertex="1">
          <mxGeometry x="450" y="400" width="120" height="50" as="geometry" />
        </mxCell>
        <mxCell id="MU2c6UWODqNbLvH5EpvW-15" value="donkeys" style="ellipse;whiteSpace=wrap;html=1;shadow=1;" parent="WIyWlLk6GJQsqaUBKTNV-1" vertex="1">
          <mxGeometry x="450" y="460" width="120" height="50" as="geometry" />
        </mxCell>
        <mxCell id="onIO_DqSaEZ-l9A6cedz-0" value="&lt;h1&gt;animal types&lt;/h1&gt;" style="text;html=1;strokeColor=none;fillColor=none;spacing=5;spacingTop=-20;whiteSpace=wrap;overflow=hidden;rounded=0;" vertex="1" parent="WIyWlLk6GJQsqaUBKTNV-1">
          <mxGeometry x="690" y="280" width="190" height="39.97" as="geometry" />
        </mxCell>
        <mxCell id="onIO_DqSaEZ-l9A6cedz-1" value="&lt;h1&gt;animal&lt;/h1&gt;&lt;h1&gt;classes&lt;/h1&gt;" style="text;html=1;strokeColor=none;fillColor=none;spacing=5;spacingTop=-20;whiteSpace=wrap;overflow=hidden;rounded=0;" vertex="1" parent="WIyWlLk6GJQsqaUBKTNV-1">
          <mxGeometry x="690" y="380.07000000000005" width="110" height="74.95" as="geometry" />
        </mxCell>
        <mxCell id="onIO_DqSaEZ-l9A6cedz-9" value="" style="group;strokeWidth=6;strokeColor=none;perimeterSpacing=2;shadow=0;" vertex="1" connectable="0" parent="WIyWlLk6GJQsqaUBKTNV-1">
          <mxGeometry x="650" y="330" width="30" height="180" as="geometry" />
        </mxCell>
        <mxCell id="onIO_DqSaEZ-l9A6cedz-6" value="" style="endArrow=none;html=1;rounded=0;strokeWidth=3;" edge="1" parent="onIO_DqSaEZ-l9A6cedz-9">
          <mxGeometry width="50" height="50" relative="1" as="geometry">
            <mxPoint x="30" y="180" as="sourcePoint" />
            <mxPoint x="30" as="targetPoint" />
          </mxGeometry>
        </mxCell>
        <mxCell id="onIO_DqSaEZ-l9A6cedz-7" value="" style="endArrow=none;html=1;rounded=0;strokeWidth=3;" edge="1" parent="onIO_DqSaEZ-l9A6cedz-9">
          <mxGeometry width="50" height="50" relative="1" as="geometry">
            <mxPoint as="sourcePoint" />
            <mxPoint x="30" as="targetPoint" />
          </mxGeometry>
        </mxCell>
        <mxCell id="onIO_DqSaEZ-l9A6cedz-8" value="" style="endArrow=none;html=1;rounded=0;strokeWidth=3;" edge="1" parent="onIO_DqSaEZ-l9A6cedz-9">
          <mxGeometry width="50" height="50" relative="1" as="geometry">
            <mxPoint y="180" as="sourcePoint" />
            <mxPoint x="30" y="180" as="targetPoint" />
          </mxGeometry>
        </mxCell>
        <mxCell id="onIO_DqSaEZ-l9A6cedz-10" value="" style="ellipse;whiteSpace=wrap;html=1;aspect=fixed;fillColor=#dae8fc;strokeColor=#6c8ebf;shadow=1;" vertex="1" parent="WIyWlLk6GJQsqaUBKTNV-1">
          <mxGeometry x="320" y="335" width="20" height="20" as="geometry" />
        </mxCell>
        <mxCell id="onIO_DqSaEZ-l9A6cedz-11" value="" style="ellipse;whiteSpace=wrap;html=1;aspect=fixed;fillColor=#dae8fc;strokeColor=#6c8ebf;shadow=1;" vertex="1" parent="WIyWlLk6GJQsqaUBKTNV-1">
          <mxGeometry x="320" y="355" width="20" height="20" as="geometry" />
        </mxCell>
        <mxCell id="onIO_DqSaEZ-l9A6cedz-12" value="" style="ellipse;whiteSpace=wrap;html=1;aspect=fixed;fillColor=#dae8fc;strokeColor=#6c8ebf;shadow=1;" vertex="1" parent="WIyWlLk6GJQsqaUBKTNV-1">
          <mxGeometry x="320" y="375" width="20" height="20" as="geometry" />
        </mxCell>
        <mxCell id="onIO_DqSaEZ-l9A6cedz-13" value="" style="endArrow=none;html=1;rounded=0;entryX=0;entryY=0.5;entryDx=0;entryDy=0;shadow=1;" edge="1" parent="WIyWlLk6GJQsqaUBKTNV-1" target="onIO_DqSaEZ-l9A6cedz-10">
          <mxGeometry width="50" height="50" relative="1" as="geometry">
            <mxPoint x="290" y="360" as="sourcePoint" />
            <mxPoint x="380" y="340" as="targetPoint" />
          </mxGeometry>
        </mxCell>
        <mxCell id="onIO_DqSaEZ-l9A6cedz-14" value="" style="endArrow=none;html=1;rounded=0;entryX=0;entryY=0.5;entryDx=0;entryDy=0;exitX=1.015;exitY=0.52;exitDx=0;exitDy=0;exitPerimeter=0;shadow=1;" edge="1" parent="WIyWlLk6GJQsqaUBKTNV-1" source="MU2c6UWODqNbLvH5EpvW-3" target="onIO_DqSaEZ-l9A6cedz-11">
          <mxGeometry width="50" height="50" relative="1" as="geometry">
            <mxPoint x="300" y="370" as="sourcePoint" />
            <mxPoint x="330" y="355" as="targetPoint" />
          </mxGeometry>
        </mxCell>
        <mxCell id="onIO_DqSaEZ-l9A6cedz-15" value="" style="endArrow=none;html=1;rounded=0;entryX=0;entryY=0.5;entryDx=0;entryDy=0;exitX=0.996;exitY=0.632;exitDx=0;exitDy=0;exitPerimeter=0;shadow=1;" edge="1" parent="WIyWlLk6GJQsqaUBKTNV-1" source="MU2c6UWODqNbLvH5EpvW-3" target="onIO_DqSaEZ-l9A6cedz-12">
          <mxGeometry width="50" height="50" relative="1" as="geometry">
            <mxPoint x="302" y="376" as="sourcePoint" />
            <mxPoint x="328" y="375" as="targetPoint" />
          </mxGeometry>
        </mxCell>
        <mxCell id="onIO_DqSaEZ-l9A6cedz-16" value="" style="ellipse;whiteSpace=wrap;html=1;aspect=fixed;fillColor=#fff2cc;strokeColor=#d6b656;shadow=1;" vertex="1" parent="WIyWlLk6GJQsqaUBKTNV-1">
          <mxGeometry x="320" y="395.03" width="20" height="20" as="geometry" />
        </mxCell>
        <mxCell id="onIO_DqSaEZ-l9A6cedz-17" value="" style="ellipse;whiteSpace=wrap;html=1;aspect=fixed;fillColor=#fff2cc;strokeColor=#d6b656;shadow=1;" vertex="1" parent="WIyWlLk6GJQsqaUBKTNV-1">
          <mxGeometry x="320" y="415.03" width="20" height="20" as="geometry" />
        </mxCell>
        <mxCell id="onIO_DqSaEZ-l9A6cedz-18" value="" style="ellipse;whiteSpace=wrap;html=1;aspect=fixed;fillColor=#fff2cc;strokeColor=#d6b656;shadow=1;" vertex="1" parent="WIyWlLk6GJQsqaUBKTNV-1">
          <mxGeometry x="320" y="435.03" width="20" height="20" as="geometry" />
        </mxCell>
        <mxCell id="onIO_DqSaEZ-l9A6cedz-19" value="" style="endArrow=none;html=1;rounded=0;entryX=0;entryY=0.5;entryDx=0;entryDy=0;shadow=1;" edge="1" parent="WIyWlLk6GJQsqaUBKTNV-1" target="onIO_DqSaEZ-l9A6cedz-16">
          <mxGeometry width="50" height="50" relative="1" as="geometry">
            <mxPoint x="290" y="420.03" as="sourcePoint" />
            <mxPoint x="380" y="400.03" as="targetPoint" />
          </mxGeometry>
        </mxCell>
        <mxCell id="onIO_DqSaEZ-l9A6cedz-20" value="" style="endArrow=none;html=1;rounded=0;entryX=0;entryY=0.5;entryDx=0;entryDy=0;exitX=1.015;exitY=0.52;exitDx=0;exitDy=0;exitPerimeter=0;shadow=1;" edge="1" parent="WIyWlLk6GJQsqaUBKTNV-1" target="onIO_DqSaEZ-l9A6cedz-17">
          <mxGeometry width="50" height="50" relative="1" as="geometry">
            <mxPoint x="292" y="426.03" as="sourcePoint" />
            <mxPoint x="330" y="415.03" as="targetPoint" />
          </mxGeometry>
        </mxCell>
        <mxCell id="onIO_DqSaEZ-l9A6cedz-21" value="" style="endArrow=none;html=1;rounded=0;entryX=0;entryY=0.5;entryDx=0;entryDy=0;exitX=0.996;exitY=0.632;exitDx=0;exitDy=0;exitPerimeter=0;shadow=1;" edge="1" parent="WIyWlLk6GJQsqaUBKTNV-1" target="onIO_DqSaEZ-l9A6cedz-18">
          <mxGeometry width="50" height="50" relative="1" as="geometry">
            <mxPoint x="290" y="432.03" as="sourcePoint" />
            <mxPoint x="328" y="435.03" as="targetPoint" />
          </mxGeometry>
        </mxCell>
        <mxCell id="onIO_DqSaEZ-l9A6cedz-22" value="" style="ellipse;whiteSpace=wrap;html=1;aspect=fixed;fillColor=#d5e8d4;strokeColor=#82b366;shadow=1;" vertex="1" parent="WIyWlLk6GJQsqaUBKTNV-1">
          <mxGeometry x="320" y="455.03" width="20" height="20" as="geometry" />
        </mxCell>
        <mxCell id="onIO_DqSaEZ-l9A6cedz-23" value="" style="ellipse;whiteSpace=wrap;html=1;aspect=fixed;fillColor=#d5e8d4;strokeColor=#82b366;shadow=1;" vertex="1" parent="WIyWlLk6GJQsqaUBKTNV-1">
          <mxGeometry x="320" y="475.03" width="20" height="20" as="geometry" />
        </mxCell>
        <mxCell id="onIO_DqSaEZ-l9A6cedz-24" value="" style="ellipse;whiteSpace=wrap;html=1;aspect=fixed;fillColor=#d5e8d4;strokeColor=#82b366;shadow=1;" vertex="1" parent="WIyWlLk6GJQsqaUBKTNV-1">
          <mxGeometry x="320" y="495.03" width="20" height="20" as="geometry" />
        </mxCell>
        <mxCell id="onIO_DqSaEZ-l9A6cedz-25" value="" style="endArrow=none;html=1;rounded=0;entryX=0;entryY=0.5;entryDx=0;entryDy=0;shadow=1;" edge="1" parent="WIyWlLk6GJQsqaUBKTNV-1" target="onIO_DqSaEZ-l9A6cedz-22">
          <mxGeometry width="50" height="50" relative="1" as="geometry">
            <mxPoint x="290" y="480.03" as="sourcePoint" />
            <mxPoint x="380" y="460.03" as="targetPoint" />
          </mxGeometry>
        </mxCell>
        <mxCell id="onIO_DqSaEZ-l9A6cedz-26" value="" style="endArrow=none;html=1;rounded=0;entryX=0;entryY=0.5;entryDx=0;entryDy=0;exitX=1.015;exitY=0.52;exitDx=0;exitDy=0;exitPerimeter=0;shadow=1;" edge="1" parent="WIyWlLk6GJQsqaUBKTNV-1" target="onIO_DqSaEZ-l9A6cedz-23">
          <mxGeometry width="50" height="50" relative="1" as="geometry">
            <mxPoint x="292" y="486.03" as="sourcePoint" />
            <mxPoint x="330" y="475.03" as="targetPoint" />
          </mxGeometry>
        </mxCell>
        <mxCell id="onIO_DqSaEZ-l9A6cedz-27" value="" style="endArrow=none;html=1;rounded=0;entryX=0;entryY=0.5;entryDx=0;entryDy=0;exitX=0.996;exitY=0.632;exitDx=0;exitDy=0;exitPerimeter=0;shadow=1;" edge="1" parent="WIyWlLk6GJQsqaUBKTNV-1" target="onIO_DqSaEZ-l9A6cedz-24">
          <mxGeometry width="50" height="50" relative="1" as="geometry">
            <mxPoint x="290" y="492.03" as="sourcePoint" />
            <mxPoint x="328" y="495.03" as="targetPoint" />
          </mxGeometry>
        </mxCell>
        <mxCell id="onIO_DqSaEZ-l9A6cedz-28" value="" style="ellipse;whiteSpace=wrap;html=1;aspect=fixed;fillColor=#f8cecc;strokeColor=#b85450;shadow=1;" vertex="1" parent="WIyWlLk6GJQsqaUBKTNV-1">
          <mxGeometry x="400" y="334.99" width="20" height="20" as="geometry" />
        </mxCell>
        <mxCell id="onIO_DqSaEZ-l9A6cedz-29" value="" style="ellipse;whiteSpace=wrap;html=1;aspect=fixed;fillColor=#f8cecc;strokeColor=#b85450;shadow=1;" vertex="1" parent="WIyWlLk6GJQsqaUBKTNV-1">
          <mxGeometry x="400" y="354.99" width="20" height="20" as="geometry" />
        </mxCell>
        <mxCell id="onIO_DqSaEZ-l9A6cedz-30" value="" style="ellipse;whiteSpace=wrap;html=1;aspect=fixed;fillColor=#f8cecc;strokeColor=#b85450;shadow=1;" vertex="1" parent="WIyWlLk6GJQsqaUBKTNV-1">
          <mxGeometry x="400" y="374.99" width="20" height="20" as="geometry" />
        </mxCell>
        <mxCell id="onIO_DqSaEZ-l9A6cedz-31" value="" style="endArrow=none;html=1;rounded=0;entryX=1;entryY=0.5;entryDx=0;entryDy=0;exitX=0.012;exitY=0.322;exitDx=0;exitDy=0;exitPerimeter=0;shadow=1;" edge="1" parent="WIyWlLk6GJQsqaUBKTNV-1" target="onIO_DqSaEZ-l9A6cedz-28" source="MU2c6UWODqNbLvH5EpvW-12">
          <mxGeometry width="50" height="50" relative="1" as="geometry">
            <mxPoint x="632" y="360" as="sourcePoint" />
            <mxPoint x="722" y="340" as="targetPoint" />
          </mxGeometry>
        </mxCell>
        <mxCell id="onIO_DqSaEZ-l9A6cedz-32" value="" style="endArrow=none;html=1;rounded=0;entryX=1;entryY=0.5;entryDx=0;entryDy=0;shadow=1;" edge="1" parent="WIyWlLk6GJQsqaUBKTNV-1" target="onIO_DqSaEZ-l9A6cedz-29">
          <mxGeometry width="50" height="50" relative="1" as="geometry">
            <mxPoint x="450" y="365" as="sourcePoint" />
            <mxPoint x="672" y="355" as="targetPoint" />
          </mxGeometry>
        </mxCell>
        <mxCell id="onIO_DqSaEZ-l9A6cedz-33" value="" style="endArrow=none;html=1;rounded=0;entryX=1;entryY=0.5;entryDx=0;entryDy=0;exitX=0.014;exitY=0.656;exitDx=0;exitDy=0;exitPerimeter=0;shadow=1;" edge="1" parent="WIyWlLk6GJQsqaUBKTNV-1" target="onIO_DqSaEZ-l9A6cedz-30" source="MU2c6UWODqNbLvH5EpvW-12">
          <mxGeometry width="50" height="50" relative="1" as="geometry">
            <mxPoint x="632" y="372" as="sourcePoint" />
            <mxPoint x="670" y="375" as="targetPoint" />
          </mxGeometry>
        </mxCell>
        <mxCell id="onIO_DqSaEZ-l9A6cedz-34" value="" style="ellipse;whiteSpace=wrap;html=1;aspect=fixed;fillColor=#ffe6cc;strokeColor=#d79b00;shadow=1;" vertex="1" parent="WIyWlLk6GJQsqaUBKTNV-1">
          <mxGeometry x="400" y="395.02" width="20" height="20" as="geometry" />
        </mxCell>
        <mxCell id="onIO_DqSaEZ-l9A6cedz-35" value="" style="ellipse;whiteSpace=wrap;html=1;aspect=fixed;fillColor=#ffe6cc;strokeColor=#d79b00;shadow=1;" vertex="1" parent="WIyWlLk6GJQsqaUBKTNV-1">
          <mxGeometry x="400" y="415.02" width="20" height="20" as="geometry" />
        </mxCell>
        <mxCell id="onIO_DqSaEZ-l9A6cedz-36" value="" style="ellipse;whiteSpace=wrap;html=1;aspect=fixed;fillColor=#ffe6cc;strokeColor=#d79b00;shadow=1;" vertex="1" parent="WIyWlLk6GJQsqaUBKTNV-1">
          <mxGeometry x="400" y="435.02" width="20" height="20" as="geometry" />
        </mxCell>
        <mxCell id="onIO_DqSaEZ-l9A6cedz-40" value="" style="ellipse;whiteSpace=wrap;html=1;aspect=fixed;fillColor=#e1d5e7;strokeColor=#9673a6;shadow=1;" vertex="1" parent="WIyWlLk6GJQsqaUBKTNV-1">
          <mxGeometry x="400" y="455.02" width="20" height="20" as="geometry" />
        </mxCell>
        <mxCell id="onIO_DqSaEZ-l9A6cedz-41" value="" style="ellipse;whiteSpace=wrap;html=1;aspect=fixed;fillColor=#e1d5e7;strokeColor=#9673a6;shadow=1;" vertex="1" parent="WIyWlLk6GJQsqaUBKTNV-1">
          <mxGeometry x="400" y="475.02" width="20" height="20" as="geometry" />
        </mxCell>
        <mxCell id="onIO_DqSaEZ-l9A6cedz-42" value="" style="ellipse;whiteSpace=wrap;html=1;aspect=fixed;fillColor=#e1d5e7;strokeColor=#9673a6;shadow=1;" vertex="1" parent="WIyWlLk6GJQsqaUBKTNV-1">
          <mxGeometry x="400" y="495.02" width="20" height="20" as="geometry" />
        </mxCell>
        <mxCell id="onIO_DqSaEZ-l9A6cedz-47" value="" style="endArrow=none;html=1;rounded=0;entryX=1;entryY=0.5;entryDx=0;entryDy=0;exitX=0.012;exitY=0.322;exitDx=0;exitDy=0;exitPerimeter=0;shadow=1;" edge="1" parent="WIyWlLk6GJQsqaUBKTNV-1">
          <mxGeometry width="50" height="50" relative="1" as="geometry">
            <mxPoint x="451" y="416" as="sourcePoint" />
            <mxPoint x="420" y="405" as="targetPoint" />
          </mxGeometry>
        </mxCell>
        <mxCell id="onIO_DqSaEZ-l9A6cedz-48" value="" style="endArrow=none;html=1;rounded=0;entryX=1;entryY=0.5;entryDx=0;entryDy=0;shadow=1;" edge="1" parent="WIyWlLk6GJQsqaUBKTNV-1">
          <mxGeometry width="50" height="50" relative="1" as="geometry">
            <mxPoint x="450" y="425" as="sourcePoint" />
            <mxPoint x="420" y="425" as="targetPoint" />
          </mxGeometry>
        </mxCell>
        <mxCell id="onIO_DqSaEZ-l9A6cedz-49" value="" style="endArrow=none;html=1;rounded=0;entryX=1;entryY=0.5;entryDx=0;entryDy=0;exitX=0.014;exitY=0.656;exitDx=0;exitDy=0;exitPerimeter=0;shadow=1;" edge="1" parent="WIyWlLk6GJQsqaUBKTNV-1">
          <mxGeometry width="50" height="50" relative="1" as="geometry">
            <mxPoint x="452" y="433" as="sourcePoint" />
            <mxPoint x="420" y="445" as="targetPoint" />
          </mxGeometry>
        </mxCell>
        <mxCell id="onIO_DqSaEZ-l9A6cedz-50" value="" style="endArrow=none;html=1;rounded=0;entryX=1;entryY=0.5;entryDx=0;entryDy=0;exitX=0.012;exitY=0.322;exitDx=0;exitDy=0;exitPerimeter=0;shadow=1;" edge="1" parent="WIyWlLk6GJQsqaUBKTNV-1">
          <mxGeometry width="50" height="50" relative="1" as="geometry">
            <mxPoint x="451" y="475.98" as="sourcePoint" />
            <mxPoint x="420" y="464.98" as="targetPoint" />
          </mxGeometry>
        </mxCell>
        <mxCell id="onIO_DqSaEZ-l9A6cedz-51" value="" style="endArrow=none;html=1;rounded=0;entryX=1;entryY=0.5;entryDx=0;entryDy=0;shadow=1;" edge="1" parent="WIyWlLk6GJQsqaUBKTNV-1">
          <mxGeometry width="50" height="50" relative="1" as="geometry">
            <mxPoint x="450" y="484.98" as="sourcePoint" />
            <mxPoint x="420" y="484.98" as="targetPoint" />
          </mxGeometry>
        </mxCell>
        <mxCell id="onIO_DqSaEZ-l9A6cedz-52" value="" style="endArrow=none;html=1;rounded=0;entryX=1;entryY=0.5;entryDx=0;entryDy=0;exitX=0.014;exitY=0.656;exitDx=0;exitDy=0;exitPerimeter=0;shadow=1;" edge="1" parent="WIyWlLk6GJQsqaUBKTNV-1">
          <mxGeometry width="50" height="50" relative="1" as="geometry">
            <mxPoint x="452" y="492.98" as="sourcePoint" />
            <mxPoint x="420" y="504.98" as="targetPoint" />
          </mxGeometry>
        </mxCell>
        <mxCell id="onIO_DqSaEZ-l9A6cedz-53" style="edgeStyle=orthogonalEdgeStyle;rounded=0;orthogonalLoop=1;jettySize=auto;html=1;endArrow=none;endFill=0;shadow=1;" edge="1" parent="WIyWlLk6GJQsqaUBKTNV-1" source="MU2c6UWODqNbLvH5EpvW-12">
          <mxGeometry relative="1" as="geometry">
            <mxPoint x="590" y="320" as="targetPoint" />
            <Array as="points">
              <mxPoint x="590" y="365" />
            </Array>
          </mxGeometry>
        </mxCell>
        <mxCell id="onIO_DqSaEZ-l9A6cedz-54" style="edgeStyle=orthogonalEdgeStyle;rounded=0;orthogonalLoop=1;jettySize=auto;html=1;endArrow=none;endFill=0;shadow=1;" edge="1" parent="WIyWlLk6GJQsqaUBKTNV-1" source="MU2c6UWODqNbLvH5EpvW-14">
          <mxGeometry relative="1" as="geometry">
            <mxPoint x="610" y="320" as="targetPoint" />
            <Array as="points">
              <mxPoint x="610" y="425" />
            </Array>
          </mxGeometry>
        </mxCell>
        <mxCell id="onIO_DqSaEZ-l9A6cedz-55" style="edgeStyle=orthogonalEdgeStyle;rounded=0;orthogonalLoop=1;jettySize=auto;html=1;endArrow=none;endFill=0;shadow=1;" edge="1" parent="WIyWlLk6GJQsqaUBKTNV-1" source="MU2c6UWODqNbLvH5EpvW-15">
          <mxGeometry relative="1" as="geometry">
            <mxPoint x="627" y="320" as="targetPoint" />
            <Array as="points">
              <mxPoint x="627" y="485" />
              <mxPoint x="627" y="320" />
            </Array>
          </mxGeometry>
        </mxCell>
        <mxCell id="onIO_DqSaEZ-l9A6cedz-56" value="&lt;h1&gt;animals&lt;/h1&gt;" style="text;html=1;strokeColor=none;fillColor=none;spacing=5;spacingTop=-20;whiteSpace=wrap;overflow=hidden;rounded=0;horizontal=0;align=center;shadow=1;" vertex="1" parent="WIyWlLk6GJQsqaUBKTNV-1">
          <mxGeometry x="349" y="345.03" width="130" height="150" as="geometry" />
        </mxCell>
      </root>
    </mxGraphModel>
  </diagram>
</mxfile>
